<svg xmlns="http://www.w3.org/2000/svg"><symbol id="sloth-1" viewBox="0 0 256 256"><path fill="#d8c2ab" d="M147.6 125.2a13.6 13.6 0 1 1-27.1 0 13.6 13.6 0 0 1 27.1 0zm40.3-4.6l-.2.4c-1 1.6-23.3 37.6-53.7 37.6s-52.7-36-53.6-37.6a.5.5 0 0 1-.2-.4 24.7 24.7 0 0 1 .3-18.4c3.6-8.6 11.7-15.6 24.2-20.6 8.4-3.4 16.4-6.2 29.2-6.7h.3c12.8.5 20.7 3.3 29.1 6.7 12.5 5 20.7 12 24.3 20.6a25.3 25.3 0 0 1 .3 18.4zm-14.2 6.8l-8.4-4.4a10.1 10.1 0 0 1-4.3 1 9.9 9.9 0 0 1 0-19.7 9.7 9.7 0 0 1 9.8 8.9l9.7 5.2.7-1a17.7 17.7 0 0 0-.6-12.5c-2.8-6.7-9.5-12.2-20.1-16.4-7.6-3.1-14.9-5.7-26.5-6.2s-18.5 3-26.5 6.2c-10.5 4.2-17.3 9.7-20.1 16.4a18.1 18.1 0 0 0-.5 12.5l.7 1 9.7-5.2a9.7 9.7 0 0 1 9.7-8.9 9.9 9.9 0 1 1 0 19.7 10.4 10.4 0 0 1-4.3-1l-8.3 4.4c8.3 10 22.9 23.7 39.6 23.7s31.3-13.7 39.7-23.7z"/></symbol><symbol id="sloth-bg" viewBox="0 0 256 256"><path fill="#d8c2ab" d="M138.7 125.2a13.6 13.6 0 1 1-27.1 0 13.6 13.6 0 0 1 27.1 0zm40.3-4.6c-.1.2-.1.3-.2.4-1 1.6-23.2 37.6-53.7 37.6s-52.7-36-53.6-37.6a.5.5 0 0 1-.2-.4 24.7 24.7 0 0 1 .3-18.4c3.6-8.6 11.7-15.6 24.3-20.6 8.3-3.4 16.3-6.2 29.1-6.7h.3c12.8.5 20.8 3.3 29.1 6.7 12.6 5 20.7 12 24.3 20.6a24.7 24.7 0 0 1 .3 18.4zm-14.2 6.8l-8.4-4.4a10 10 0 0 1-4.2 1 9.9 9.9 0 1 1 0-19.7 9.7 9.7 0 0 1 9.7 8.9l9.7 5.2.7-1a17.7 17.7 0 0 0-.6-12.5c-2.8-6.7-9.5-12.2-20.1-16.4-7.6-3.1-14.9-5.7-26.5-6.2s-18.5 3-26.5 6.2c-10.5 4.2-17.2 9.7-20 16.4a17.7 17.7 0 0 0-.6 12.5l.7 1 9.7-5.2a9.7 9.7 0 0 1 9.7-8.9 9.9 9.9 0 1 1 0 19.7 10.4 10.4 0 0 1-4.3-1l-8.3 4.4c8.3 10 22.9 23.7 39.6 23.7s31.3-13.7 39.7-23.7z"/></symbol><symbol id="sloth-2" viewBox="0 0 256 256"><path fill="#d8c2ab" d="M164.7 136.5a13.6 13.6 0 1 1-13.6-13.6 13.6 13.6 0 0 1 13.6 13.6zm40.3-4.6a.8.8 0 0 0-.2.4c-1 1.6-23.3 37.5-53.7 37.5s-52.7-35.9-53.6-37.5l-.2-.4a24.8 24.8 0 0 1 .3-18.4c3.5-8.7 11.7-15.6 24.2-20.7 8.4-3.3 16.4-6.2 29.2-6.6h.3c12.8.4 20.7 3.3 29.1 6.6 12.5 5.1 20.7 12 24.3 20.7a25.9 25.9 0 0 1 .3 18.4zm-14.2 6.8l-8.4-4.5a8.8 8.8 0 0 1-4.3 1 9.8 9.8 0 1 1 9.8-10.7l9.7 5.2.6-1a17.5 17.5 0 0 0-.5-12.5q-4.2-10-20.1-16.5c-7.6-3.1-14.9-5.6-26.5-6.1s-18.5 2.9-26.5 6.1c-10.5 4.3-17.3 9.8-20.1 16.5a18.1 18.1 0 0 0-.5 12.5 6.4 6.4 0 0 1 .6 1l9.8-5.2a9.8 9.8 0 0 1 9.7-9 9.9 9.9 0 1 1 0 19.7 9.1 9.1 0 0 1-4.3-1l-8.4 4.5c8.4 10 23 23.7 39.7 23.7s31.3-13.7 39.7-23.7z"/></symbol></svg>
