<svg xmlns="http://www.w3.org/2000/svg"><symbol id="sloth-1" viewBox="0 0 256 256"><path fill="#d8c2ab" d="M141.6 116.7a13.6 13.6 0 1 1-13.6-13.5 13.6 13.6 0 0 1 13.6 13.5zm40.3-4.6l-.3.4c-.9 1.6-23.2 37.6-53.6 37.6s-52.7-36-53.6-37.6l-.3-.4a25.6 25.6 0 0 1 .4-18.4c3.5-8.6 11.7-15.6 24.2-20.6 8.4-3.4 16.4-6.2 29.2-6.7h.2c12.8.5 20.8 3.3 29.2 6.7 12.5 5 20.7 12 24.2 20.6a25.6 25.6 0 0 1 .4 18.4zm-14.2 6.8l-8.4-4.4a10.1 10.1 0 0 1-4.3 1 9.9 9.9 0 1 1 9.8-10.8l9.7 5.2a6.4 6.4 0 0 0 .6-1 17.5 17.5 0 0 0-.5-12.5c-2.8-6.7-9.6-12.2-20.1-16.4-7.7-3.1-15-5.7-26.5-6.2s-18.6 3-26.5 6.2C91 84.2 84.2 89.7 81.4 96.4a17.5 17.5 0 0 0-.5 12.5l.6 1 9.7-5.2a9.8 9.8 0 1 1 9.8 10.8 10.1 10.1 0 0 1-4.3-1l-8.4 4.4c8.4 10 23 23.7 39.7 23.7s31.3-13.7 39.7-23.7z"/></symbol><symbol id="sloth-bg" viewBox="0 0 256 256"><path fill="#d8c2ab" d="M141.6 125.2a13.6 13.6 0 1 1-13.6-13.5 13.6 13.6 0 0 1 13.6 13.5zm40.3-4.6l-.3.4c-.9 1.6-23.2 37.6-53.6 37.6s-52.7-36-53.6-37.6l-.3-.4a25.6 25.6 0 0 1 .4-18.4c3.5-8.6 11.7-15.6 24.2-20.6 8.4-3.4 16.4-6.2 29.2-6.7h.2c12.8.5 20.8 3.3 29.2 6.7 12.5 5 20.7 12 24.2 20.6a25.6 25.6 0 0 1 .4 18.4zm-14.2 6.8l-8.4-4.4a10.1 10.1 0 0 1-4.3 1 9.9 9.9 0 1 1 9.8-10.8l9.7 5.2a6.4 6.4 0 0 0 .6-1 17.5 17.5 0 0 0-.5-12.5c-2.8-6.7-9.6-12.2-20.1-16.4-7.7-3.1-15-5.7-26.5-6.2s-18.6 3-26.5 6.2c-10.5 4.2-17.3 9.7-20.1 16.4a17.5 17.5 0 0 0-.5 12.5l.6 1 9.7-5.2A9.8 9.8 0 1 1 101 124a10.1 10.1 0 0 1-4.3-1l-8.4 4.4c8.4 10 23 23.7 39.7 23.7s31.3-13.7 39.7-23.7z"/></symbol><symbol id="sloth-2" viewBox="0 0 256 256"><path fill="#d8c2ab" d="M132.8 135.8a13.6 13.6 0 1 1-13.6-13.6 13.6 13.6 0 0 1 13.6 13.6zm40.3-4.6l-.3.4c-.9 1.6-23.2 37.5-53.6 37.5s-52.7-35.9-53.6-37.5l-.3-.4a25.6 25.6 0 0 1 .4-18.4c3.5-8.7 11.7-15.6 24.2-20.7 8.4-3.3 16.3-6.2 29.2-6.6h.2c12.8.4 20.8 3.3 29.2 6.6 12.5 5.1 20.7 12 24.2 20.7a25.6 25.6 0 0 1 .4 18.4zm-14.2 6.8l-8.4-4.5a9.1 9.1 0 0 1-4.3 1 9.9 9.9 0 0 1 0-19.7 10 10 0 0 1 9.8 9l9.7 5.2.6-1a17.5 17.5 0 0 0-.5-12.5c-2.8-6.7-9.6-12.2-20.1-16.5-7.7-3.1-15-5.7-26.5-6.1s-18.6 2.9-26.5 6.1c-10.5 4.3-17.3 9.8-20.1 16.5a17.5 17.5 0 0 0-.5 12.5l.6 1 9.7-5.2a9.8 9.8 0 1 1 9.8 10.7 8.8 8.8 0 0 1-4.3-1l-8.4 4.5c8.4 10 22.9 23.7 39.7 23.7s31.3-13.7 39.7-23.7z"/></symbol></svg>